<svg width="35" height="34" viewBox="0 0 35 34" fill="none" xmlns="http://www.w3.org/2000/svg">
<path d="M6.87967 2.7824C6.56779 2.43899 6.13432 2.23068 5.67132 2.20172C5.20832 2.17276 4.75228 2.32544 4.40003 2.62731L0.531727 5.94484C0.22353 6.25415 0.0395771 6.66583 0.0147637 7.10178C-0.0119758 7.54744 -0.521808 18.1043 7.66403 26.2939M6.87967 2.7824L28.0092 33.4227C27.7014 33.7323 27.2899 33.917 26.854 33.9414C26.7952 33.945 26.5742 33.9557 26.2141 33.9557C23.7505 33.9557 14.8052 33.4334 7.66403 26.2939M6.87967 2.7824L13.4665 10.0253L6.87967 2.7824ZM7.66403 26.2939L8.37105 25.5867M7.66403 26.2939L8.37129 25.5869M8.37105 25.5867C0.500087 17.7119 0.990689 7.53301 1.01297 7.16167L1.01315 7.15861C1.02345 6.97762 1.09622 6.80617 1.21851 6.67323L5.05077 3.38662C5.0508 3.38659 5.05083 3.38656 5.05087 3.38653C5.05092 3.38649 5.05098 3.38644 5.05103 3.38639C5.20564 3.25401 5.40575 3.18707 5.6089 3.19977C5.81216 3.21248 6.00247 3.30394 6.13939 3.45471L6.13985 3.45521L12.7267 10.6981L12.7271 10.6986C12.864 10.8489 12.937 11.0466 12.9307 11.2498C12.9245 11.453 12.8394 11.6458 12.6935 11.7873L12.6923 11.7885L8.30877 16.0562L7.92488 16.4299L8.0234 16.9566C8.24432 18.1376 8.96645 20.4019 11.2581 22.6955L11.2593 22.6967C13.5511 24.9829 15.8091 25.7039 16.9939 25.9302L17.5229 26.0312L17.8984 25.6451L22.1643 21.258L22.1643 21.2579C22.3062 21.112 22.4992 21.0269 22.7025 21.0206C22.9059 21.0143 23.1038 21.0873 23.2544 21.2242L30.4987 27.8126C30.4987 27.8126 30.4987 27.8127 30.4987 27.8127C30.6494 27.9497 30.7407 28.1401 30.7532 28.3433C30.7658 28.5466 30.6986 28.7468 30.566 28.9013L30.5655 28.9019L27.2789 32.7381C27.1477 32.8603 26.9777 32.933 26.7981 32.943L26.7935 32.9433C26.7565 32.9455 26.5557 32.9557 26.2141 32.9557C23.8482 32.9557 15.2328 32.4466 8.37129 25.5869M8.37105 25.5867C8.37113 25.5867 8.37121 25.5868 8.37129 25.5869M8.37105 25.5867C8.37113 25.5867 8.37121 25.5868 8.37129 25.5869" stroke="#883399" stroke-width="2"/>
<path d="M33.4545 17.0421C33.4545 7.89709 26.5504 1 17.393 1M26.324 17.0439C26.324 11.2948 23.1598 8.13062 17.4109 8.13062" stroke="#883399" stroke-width="2"/>
</svg>
