<svg width="87" height="99" viewBox="0 0 87 99" fill="none" xmlns="http://www.w3.org/2000/svg">
<path d="M41.4608 1.40505L47.6496 7.51232L42.3897 12.703L40.655 14.4148H43.0921H43.4999C66.718 14.4148 85.9999 32.9921 85.9999 56.3416C85.9999 77.1707 70.2985 94.6383 49.9374 97.8459V89.0929C65.3785 85.8994 77.1249 72.3574 77.1249 56.3416C77.1249 37.8917 61.7822 23.1465 43.4999 23.1465H43.0921H40.655L42.3897 24.8582L47.6496 30.0489L41.4608 36.1562L23.8533 18.7806L41.4608 1.40505ZM37.0624 89.1034V97.8552C16.5978 94.7977 0.999878 77.1982 0.999878 56.3416C0.999878 45.1939 5.58984 34.3595 13.5794 26.6105L19.89 32.838C13.4219 38.9481 9.87488 47.4398 9.87488 56.3416C9.87488 72.3652 21.4756 86.0761 37.0624 89.1034Z" stroke="#883399" stroke-width="2"/>
</svg>
