<svg width="118" height="84" viewBox="0 0 118 84" fill="none" xmlns="http://www.w3.org/2000/svg">
<path d="M95.6927 45.7066L86.7703 54.6735C79.3164 47.5458 69.3462 43.4706 59 43.4706C48.6577 43.4706 38.6911 47.5428 31.2381 54.6654L22.3048 45.4737C32.1087 35.987 45.3493 30.6471 59 30.6471C72.7043 30.6471 85.9344 36.1038 95.6927 45.7066ZM116.592 24.7027L107.67 33.6698C94.6822 20.9892 77.1719 13.8235 59 13.8235C40.8281 13.8235 23.3178 20.9892 10.3301 33.6698L1.4075 24.7027C16.6344 9.44963 37.4507 1 59 1C80.5493 1 101.366 9.44964 116.592 24.7027ZM74.9081 66.4764L59 82.5772L43.0919 66.4764C47.4114 62.4929 53.1015 60.2941 59 60.2941C64.8985 60.2941 70.5886 62.4929 74.9081 66.4764Z" stroke="#883399" stroke-width="2"/>
</svg>
